# xmcd
#
# Track frame offsets:
#	150
#	12495
#	27728
#	43417
#	58058
#	70674
#	82854
#	100980
#	116537
#	128988
#	144122
#	154970
#	171864
#
# Disc length: 2501 seconds
# Revision: 0
# Processed by: cddbd v1.5.2PL0 Copyright (c) Steve Scherf et al.
# Submitted via: dBpowerAMP V12.0
#
DISCID=b309c30d
DTITLE=Joe Goldmark - Blue Steel
DYEAR=2018
DGENRE=Country
TTITLE0=Night Flight
TTITLE1=All Night Worker
TTITLE2=A Love so Beautiful
TTITLE3=Ginger Ale
TTITLE4=The Wobble
TTITLE5=Warm Rain
TTITLE6=Howlin' Wind
TTITLE7=Natty Dread
TTITLE8=Look What Thoughts Will Do
TTITLE9=Tacky Tango
TTITLE10=Beautician Blues
TTITLE11=I want to be with you Forever
TTITLE12=True Love Travels on a Gravel Road
EXTD=
EXTT0=
EXTT1=
EXTT2=
EXTT3=
EXTT4=
EXTT5=
EXTT6=
EXTT7=
EXTT8=
EXTT9=
EXTT10=
EXTT11=
EXTT12=
PLAYORDER=
